<svg width="43" height="43" viewBox="0 0 43 43" fill="none" xmlns="http://www.w3.org/2000/svg">
<path d="M10.0007 31.667C5.85852 31.667 3.33398 28.3091 3.33398 24.167C3.33398 20.0249 6.69185 16.667 10.834 16.667H11.6673V15.0003C11.6673 10.398 15.3983 6.66699 20.0007 6.66699C24.603 6.66699 28.334 10.398 28.334 15.0003V16.667H29.1673C33.3095 16.667 36.6673 20.0249 36.6673 24.167C36.6673 28.3091 34.1428 31.667 30.0007 31.667" stroke="#E50D00" stroke-width="2.5" stroke-linecap="round" stroke-linejoin="round"/>
<path d="M15 32.5V25.8333C15 25.3731 15.3731 25 15.8333 25H24.1667C24.6269 25 25 25.3731 25 25.8333V32.5C25 32.9602 24.6269 33.3333 24.1667 33.3333H15.8333C15.3731 33.3333 15 32.9602 15 32.5Z" stroke="#E50D00" stroke-width="2.5" stroke-linecap="round" stroke-linejoin="round"/>
<path d="M16.668 25V23.3333C16.668 21.4924 18.1604 20 20.0013 20V20C21.8423 20 23.3346 21.4924 23.3346 23.3333V25" stroke="#E50D00" stroke-width="2.5" stroke-linecap="round" stroke-linejoin="round"/>
</svg>
